<?xml version="1.0" encoding="UTF-8" standalone="no"?>
<svg width="448px" height="449px" viewBox="0 0 448 449" version="1.1" xmlns="http://www.w3.org/2000/svg" xmlns:xlink="http://www.w3.org/1999/xlink" xmlns:sketch="http://www.bohemiancoding.com/sketch/ns">
    <title>github-outline</title>
    <description>Created with Sketch (http://www.bohemiancoding.com/sketch)</description>
    <defs></defs>
    <g id="Page-1" stroke="none" stroke-width="1" fill="none" fill-rule="evenodd" sketch:type="MSPage">
        <g id="icon-social-github-outline" sketch:type="MSLayerGroup" fill="#ECF0F1">
            <path d="M224,16.3 C252,16.3 279.2,21.9 304.8,33 C329.6,43.7 351.8,59.1 370.9,78.7 C390,98.3 405.1,121.2 415.6,146.6 C426.5,173 432,201 432,229.9 C432,275.7 418.1,319.4 391.8,356.2 C379.2,373.9 364,389.4 346.8,402.4 C331,414.3 313.8,423.7 295.6,430.6 L295.6,424.1 C295.7,412.2 295.8,394.3 295.8,373.7 C295.8,361.3 293.8,351.2 290.9,343.2 C328.1,334.9 382.9,309.5 382.9,217.8 C382.9,193.2 375.8,171.3 361.7,152.7 C364.8,139.8 367.2,117.1 356.6,89.7 L353.9,82.6 L346.7,80.2 C345.2,79.7 341.9,78.9 336.7,78.9 C325.2,78.9 305.8,82.8 277.2,101.5 C260.2,97.3 242.4,94.9 224.1,94.9 L224,94.9 L223.9,94.9 C205.6,94.9 187.7,97.3 170.8,101.5 C142.2,82.8 122.8,78.8 111.3,78.8 C106.1,78.8 102.8,79.7 101.3,80.2 L94.1,82.6 L91.4,89.7 C80.8,117.2 83.2,139.9 86.3,152.7 C72.2,171.4 65.1,193.3 65.1,217.8 C65.1,267.4 81.1,297.7 101.7,316.3 C93.6,309.7 83.1,304.2 70.5,303.3 L70,303.3 L69.5,303.3 L69.2,303.3 C56.1,303.3 46.9,308.7 44,318 C39.3,332.8 53.8,343 58.6,346.4 L59.1,347 L60.6,347.6 C62.2,348.6 70.7,354.6 77.5,372.1 C79.5,378.3 83.8,386.6 91.1,394.3 C78,383.1 66.3,370.3 56.2,356.2 C29.9,319.5 16,275.8 16,230 C16,201.1 21.5,173.1 32.4,146.7 C42.9,121.2 57.9,98.4 77.1,78.8 C96.2,59.2 118.5,43.8 143.2,33.1 C168.8,22 196,16.3 224,16.3 L224,16.3 Z M104.7,319 C121.5,333.1 141,339.9 157,343.5 C156.2,345.7 155.5,348 154.9,350.4 C151.5,351.4 147.4,352.2 143.2,352.2 C132.3,352.2 124.2,346.8 117.6,335.3 C115.2,330.7 110.8,324.6 104.7,319 L104.7,319 Z M108.4,407.6 C118.2,412.9 130.5,416.4 145.6,416.4 C147.8,416.4 150,416.3 152.3,416.2 C152.3,419 152.3,421.7 152.4,424.1 C152.4,426.5 152.4,428.7 152.5,430.6 C136.9,424.8 122.2,417.1 108.4,407.6 L108.4,407.6 Z M224,0.3 C100.3,0.3 0,103.2 0,230 C0,331.5 64.2,417.5 153.2,447.9 C154.6,448.2 155.8,448.3 157,448.3 C165.3,448.3 168.5,442.2 168.5,436.9 C168.5,431.4 168.3,417 168.2,397.8 C159.8,399.7 152.3,400.5 145.6,400.5 C102.5,400.5 92.7,367 92.7,367 C82.5,340.5 67.8,333.2 67.8,333.2 C48.3,319.5 67.7,319 69.2,319 L69.3,319 C91.8,321 103.6,342.9 103.6,342.9 C114.8,362.5 129.8,368.1 143.2,368.1 C153.7,368.1 163.2,364.7 168.8,362.1 C170.8,347.3 176.6,337.2 183,331.4 C133.3,325.6 81,305.9 81,217.9 C81,192.8 89.7,172.3 104,156.3 C101.7,150.5 94,127.1 106.2,95.5 C106.2,95.5 107.8,95 111.2,95 C119.3,95 137.6,98.1 167.8,119.1 C185.7,114 204.8,111.5 223.9,111.4 C242.9,111.5 262.1,114 280,119.1 C310.2,98.1 328.5,95 336.6,95 C340,95 341.6,95.5 341.6,95.5 C353.8,127.1 346.1,150.5 343.8,156.3 C358.1,172.4 366.8,192.9 366.8,217.9 C366.8,306.1 314.4,325.5 264.5,331.2 C272.5,338.3 279.7,352.3 279.7,373.7 C279.7,404.4 279.4,429.2 279.4,436.7 C279.4,442.1 282.5,448.2 290.8,448.2 C292,448.2 293.4,448.1 294.8,447.8 C383.9,417.5 448,331.4 448,230 C448,103.2 347.7,0.3 224,0.3 L224,0.3 L224,0.3 L224,0.3 L224,0.3 Z M224,0.3" id="Shape" sketch:type="MSShapeGroup"></path>
        </g>
    </g>
</svg>