<?xml version="1.0" encoding="UTF-8" standalone="no"?>
<svg width="448px" height="448px" viewBox="0 0 448 448" version="1.1" xmlns="http://www.w3.org/2000/svg" xmlns:xlink="http://www.w3.org/1999/xlink" xmlns:sketch="http://www.bohemiancoding.com/sketch/ns">
    <title>github</title>
    <description>Created with Sketch (http://www.bohemiancoding.com/sketch)</description>
    <defs></defs>
    <g id="Page-1" stroke="none" stroke-width="1" fill="none" fill-rule="evenodd" sketch:type="MSPage">
        <g id="icon-social-github" sketch:type="MSLayerGroup" fill="#ECF0F1">
            <path d="M224,0 C100.3,0 0,102.8 0,229.7 C0,331.2 64.2,417.2 153.2,447.6 C164.4,449.7 168.5,442.6 168.5,436.5 C168.5,431 168.3,416.6 168.2,397.4 C105.9,411.3 92.7,366.6 92.7,366.6 C82.5,340.1 67.8,333 67.8,333 C47.5,318.7 69.3,319 69.3,319 C91.8,320.6 103.6,342.7 103.6,342.7 C123.6,377.8 156,367.7 168.8,361.8 C170.8,347 176.6,336.8 183,331.1 C133.3,325.3 81,305.6 81,217.6 C81,192.5 89.7,172 104,156 C101.7,150.2 94,126.8 106.2,95.2 C106.2,95.2 125,89 167.8,118.7 C185.7,113.6 204.8,111.1 223.9,111 C242.9,111.1 262.1,113.6 280,118.7 C322.8,89 341.5,95.2 341.5,95.2 C353.7,126.8 346,150.2 343.7,156 C358,172.1 366.7,192.6 366.7,217.6 C366.7,305.8 314.3,325.2 264.4,330.9 C272.4,338 279.6,352 279.6,373.4 C279.6,404.1 279.3,428.9 279.3,436.4 C279.3,442.5 283.3,449.7 294.7,447.4 C383.9,417.1 448,331.1 448,229.7 C448,102.8 347.7,0 224,0 L224,0 L224,0 L224,0 Z M224,0" id="Shape" sketch:type="MSShapeGroup"></path>
        </g>
    </g>
</svg>