<?xml version="1.0" encoding="UTF-8" standalone="no"?>
<svg width="472px" height="384px" viewBox="0 0 472 384" version="1.1" xmlns="http://www.w3.org/2000/svg" xmlns:xlink="http://www.w3.org/1999/xlink" xmlns:sketch="http://www.bohemiancoding.com/sketch/ns">
    <title>Slice 1</title>
    <description>Created with Sketch (http://www.bohemiancoding.com/sketch)</description>
    <defs></defs>
    <g id="Page-1" stroke="none" stroke-width="1" fill="none" fill-rule="evenodd" sketch:type="MSPage">
        <g id="icon-social-twitter-outline" sketch:type="MSLayerGroup" fill="#ECF0F1">
            <path d="M326.8,16 C349.1,16 370.6,25.3 385.8,41.6 L391.9,48.1 L400.6,46.4 C405.1,45.5 409.5,44.5 413.9,43.3 C412.9,44.7 408.2,49.4 402.9,54.1 C398.4,58.1 385.1,70.6 385.1,70.6 C385.1,70.6 398.1,74.7 406.2,75.6 C414.3,76.5 423.6,75 425.1,74.8 C422.3,77.1 417.3,80.6 414.3,82.7 L407.3,87.8 L407.7,96.4 C407.9,100.2 408,104.2 408,108.2 C408,138.4 402.1,170 391,199.7 C379.3,230.9 362.5,259.1 341,283.5 C318,309.6 290.8,330 259.9,344.3 C226.1,360 188.6,367.9 148.4,367.9 C119.5,367.9 91,363.1 63.9,353.7 C73.8,351.8 83.5,349.1 93,345.8 C114.7,338.2 134.9,327.1 153.1,312.8 L188.4,285.1 L143.5,284.3 C117.4,283.8 93.8,270.9 79.2,250.4 C86.5,249.9 93.7,248.6 100.7,246.7 L161.4,226.5 L99.7,215.6 C70.1,209.7 46.9,187.7 38.4,159.8 C46.2,161.8 53.8,162.6 62.3,163.1 C62.3,163.1 94.1,164.5 118.1,163 C105.1,156.8 71.7,133.8 71.7,133.8 C49.2,118.7 35.7,93.6 35.7,66.4 C35.7,60 36.5,53.6 37.9,47.4 C59.8,69.8 84.9,88.5 113,102.9 C150,122 189.9,132.7 231.6,134.8 L252.8,135.9 L248,115.2 C246.6,109.3 245.9,103.1 245.9,96.7 C245.9,52.3 282.2,16 326.8,16 L326.8,16 Z M326.8,0 C273.3,0 230,43.4 230,96.9 C230,104.5 230.8,111.9 232.5,119 C152,115 80.6,76.4 32.9,17.7 C24.6,32 19.8,48.7 19.8,66.4 C19.8,100 36.9,129.7 62.9,147.1 C47,146.7 32,142.3 19,135 L19,136.2 C19,183.2 52.4,222.3 96.7,231.2 C88.6,233.4 80,234.6 71.2,234.6 C65,234.6 58.9,234 53,232.8 C65.3,271.3 101.1,299.3 143.5,300.1 C110.4,326.1 68.6,341.6 23.2,341.6 C15.4,341.6 7.7,341.1 0.1,340.2 C42.9,368 93.8,384 148.4,384 C326.6,384 424,236.3 424,108.2 C424,104 423.9,99.8 423.7,95.7 C442.6,82 459,65 472,45.5 C454.6,53.2 436,58.4 416.4,60.8 C436.4,48.8 451.8,29.8 459,7.2 C440.3,18.3 419.6,26.4 397.5,30.7 C379.8,11.8 354.6,0 326.8,0 L326.8,0 L326.8,0 L326.8,0 L326.8,0 Z M326.8,0" id="Shape" sketch:type="MSShapeGroup"></path>
        </g>
    </g>
</svg>